<?xml version="1.0" standalone="no"?>
<!DOCTYPE svg PUBLIC "-//W3C//DTD SVG 20010904//EN"
 "http://www.w3.org/TR/2001/REC-SVG-20010904/DTD/svg10.dtd">
<svg version="1.0" xmlns="http://www.w3.org/2000/svg"
 width="243.000000pt" height="204.000000pt" viewBox="0 0 243.000000 204.000000"
 preserveAspectRatio="xMidYMid meet">

<g transform="translate(0.000000,204.000000) scale(0.100000,-0.100000)"
fill="#000000" stroke="none">
<path d="M110 1445 l0 -405 60 0 60 0 0 190 0 190 175 0 175 0 0 -275 0 -275
-241 0 -240 0 3 -52 3 -53 237 -3 238 -2 2 -348 3 -347 55 0 55 0 5 345 5 345
43 3 42 3 0 54 0 54 -42 3 -43 3 -1 95 c-1 52 -2 272 -3 488 l-1 392 -60 0
-59 0 -3 -157 -3 -158 -170 0 -170 0 -3 158 -3 157 -59 0 -60 0 0 -405z"/>
<path d="M1220 1845 c0 -3 29 -64 65 -135 36 -71 65 -134 65 -139 0 -5 -31
-10 -70 -10 -84 0 -137 -13 -213 -53 -216 -115 -280 -414 -132 -620 l37 -51
-26 -24 c-79 -73 -107 -185 -72 -289 60 -180 294 -241 439 -114 78 69 108 169
84 280 -7 35 -7 35 41 52 75 27 155 91 201 159 60 89 75 151 68 277 l-5 105
51 118 c27 66 53 119 57 119 3 0 48 -98 100 -217 51 -120 97 -222 101 -227 7
-8 345 662 380 752 l9 23 -96 -3 -95 -3 -92 -202 c-50 -112 -94 -203 -97 -203
-3 0 -50 90 -105 200 -55 110 -102 200 -105 200 -3 0 -50 -90 -105 -200 -55
-110 -103 -196 -107 -192 -4 4 -48 95 -97 202 l-90 195 -95 3 c-53 1 -96 0
-96 -3z m178 -474 c82 -42 122 -118 122 -231 0 -146 -74 -239 -204 -256 -95
-13 -201 38 -242 118 -59 114 -27 281 67 350 68 51 179 59 257 19z m-265 -631
c31 -11 70 -20 86 -20 42 0 61 -31 61 -103 0 -103 -46 -158 -138 -165 -47 -3
-63 0 -92 20 -44 30 -70 80 -70 138 1 73 44 148 85 150 6 0 36 -9 68 -20z"/>
</g>
</svg>
